<svg xmlns="http://www.w3.org/2000/svg" viewBox="30 -223 904 904" fill-rule="evenodd" role="img" aria-label="whoami.wiki">
  <style>
    path { fill: #000; }
    @media (prefers-color-scheme: dark) {
      path { fill: #fff; }
    }
  </style>
  <path d="M 882.5,31.4 C 875.3,33.2 870.4,36.0 849.3,50.1 C 839.0,57.1 824.4,66.3 817.0,70.6 C 805.1,77.5 765.7,97.3 752.8,102.8 L 748.1,104.8 L 745.1,98.4 C 739.6,86.7 733.0,77.7 721.6,66.5 C 701.1,46.3 678.3,36.0 647.3,32.9 C 619.9,30.1 587.9,37.3 562.0,52.2 C 530.6,70.3 514.2,94.0 510.1,127.2 C 505.8,162.5 526.1,194.9 563.4,212.6 C 575.8,218.4 587.9,221.7 604.0,223.7 C 615.6,225.1 619.6,225.2 632.5,224.1 C 640.8,223.4 652.6,221.9 658.8,220.6 L 670.0,218.3 L 669.4,220.4 C 668.3,223.8 661.4,237.2 656.0,246.3 C 638.6,275.8 606.7,307.4 578.6,322.9 C 536.8,345.9 501.9,342.0 487.6,312.7 C 482.0,301.4 480.9,295.5 480.0,275.0 C 479.1,252.6 477.8,248.2 469.3,239.0 C 461.7,230.8 453.4,226.8 442.3,226.2 C 435.4,225.8 433.0,226.1 428.0,228.0 C 419.7,231.1 414.6,236.0 404.3,250.7 C 388.0,274.2 362.4,298.2 333.0,317.6 C 315.3,329.3 299.9,337.7 287.9,342.2 C 280.9,344.8 278.0,345.4 270.5,345.4 C 259.9,345.5 256.6,344.1 252.0,337.8 C 246.8,330.7 245.5,324.4 245.6,307.5 C 245.6,291.4 246.9,283.4 252.0,265.5 C 256.8,249.1 263.2,232.5 271.4,215.5 C 281.0,195.5 282.4,191.0 281.7,181.1 C 281.1,170.8 278.0,163.4 271.3,156.0 C 260.2,143.8 242.9,138.4 227.0,142.4 C 222.8,143.4 206.2,151.1 180.5,163.9 C 118.2,195.0 96.1,203.5 63.5,209.0 C 45.4,212.0 37.8,216.6 32.6,227.9 C 30.9,231.7 30.5,234.4 30.5,243.0 C 30.5,252.8 30.7,254.0 33.7,260.1 C 37.6,268.0 43.6,274.2 51.0,278.0 C 59.7,282.3 65.8,283.4 78.9,282.7 C 100.8,281.5 122.8,275.2 159.9,259.3 C 169.4,255.2 177.3,252.0 177.5,252.2 C 177.7,252.4 177.0,255.9 175.9,260.0 C 172.8,272.2 169.0,296.7 168.3,309.0 C 166.7,340.3 175.8,373.0 192.1,393.6 C 201.9,405.9 212.5,414.5 226.2,421.0 C 239.9,427.6 248.2,429.4 264.5,429.3 C 286.0,429.3 300.2,425.4 326.1,412.5 C 348.1,401.5 377.8,383.0 406.9,362.1 C 414.8,356.4 421.9,351.7 422.5,351.6 C 423.2,351.6 426.6,355.8 430.1,361.0 C 450.7,391.3 480.8,412.4 514.5,420.0 C 528.3,423.2 547.1,423.2 562.7,420.1 C 614.7,410.0 668.5,371.6 708.5,316.1 C 734.2,280.5 752.8,236.4 758.2,198.6 C 759.1,192.8 760.0,189.4 761.0,188.9 C 761.8,188.4 770.6,184.6 780.5,180.4 C 822.2,162.8 864.3,140.3 905.2,113.7 C 920.1,104.1 925.1,99.0 929.8,89.3 C 932.8,83.0 933.4,80.3 933.8,73.5 C 934.5,59.6 930.9,50.7 920.7,41.3 C 910.7,32.2 894.9,28.1 882.5,31.4 M 649.2,114.4 C 657.4,116.2 661.4,118.1 666.3,122.9 C 669.6,125.9 674.0,132.6 674.0,134.4 C 674.0,135.2 655.4,140.8 645.0,143.1 C 622.2,148.1 598.3,146.0 592.1,138.6 C 586.8,132.3 610.3,116.8 629.4,114.0 C 637.4,112.8 642.0,112.9 649.2,114.4"/>
</svg>
